<?xml version="1.0" encoding="utf-8"?>
<!-- Generator: Adobe Illustrator 19.0.0, SVG Export Plug-In . SVG Version: 6.00 Build 0)  -->
<svg version="1.1" id="Layer_1" xmlns="http://www.w3.org/2000/svg" xmlns:xlink="http://www.w3.org/1999/xlink" x="0px" y="0px"
	 viewBox="0 0 150 150" style="enable-background:new 0 0 150 150;" xml:space="preserve">
<style type="text/css">
	.st0{fill:#EAEAE2;}
	.st1{fill:#B3B2A5;}
	.st2{fill:#26A9E0;}
	.st3{fill:#FFFFF5;}
	.st4{fill:#262261;}
	.st5{fill:#FB9F0E;}
	.st6{fill:#FCD25D;}
	.st7{fill:#D24E32;}
	.st8{fill:#FCB23D;}
	.st9{fill:#EEF2F2;}
</style>
<rect id="XMLID_106_" x="-0.8" y="-0.8" class="st0" width="151.4" height="150.2"/>
<g id="XMLID_27_">
	<path class="st0" d="M75.1,21.9l7.2-22.4c-2.4-0.2-4.9-0.4-7.4-0.4c-2.3,0-4.6,0.1-6.9,0.3L76,24.7L75.1,21.9z M75.1,21.9"/>
	<path class="st0" d="M73.1,35.8l3.1,9.8l0.9,3c0.1,0,0.1,0,0.2,0L62.1,0.3c-0.1,0-0.1,0-0.2,0L70,25.9L73.1,35.8z M73.1,35.8"/>
	<path class="st0" d="M51.7,122L51.7,122c-10.4-7.4-17.2-19.4-17.2-33.1c0-13.3,6.4-25.1,16.3-32.4L36.1,9.9
		C14,23.1-0.8,47.3-0.8,74.9c0,41.8,33.9,75.7,75.7,75.7c4.7,0,9.2-0.4,13.7-1.2L51.7,122z M51.7,122"/>
	<path class="st1" d="M115.2,88.9c0,22.3-18.1,40.4-40.4,40.4c-8.6,0-16.6-2.7-23.2-7.3v0.1l36.9,27.3c35.3-6.4,62-37.3,62-74.5
		c0-28.9-16.2-54-40-66.8L96,54.5C107.5,61.6,115.2,74.4,115.2,88.9L115.2,88.9z M115.2,88.9"/>
	<path class="st2" d="M96,54.5l14.6-46.4c-1.7-0.9-3.5-1.8-5.4-2.6L90.7,51.8C92.5,52.6,94.3,53.5,96,54.5L96,54.5z M96,54.5"/>
	<path class="st3" d="M90.7,51.8l14.5-46.3c-1.8-0.8-3.6-1.5-5.5-2.2L85.1,49.9C87,50.4,88.9,51,90.7,51.8L90.7,51.8z M90.7,51.8"/>
	<path class="st3" d="M76,24.7l3.4,10.7l4.5-14.4V-0.3c-0.5-0.1-1-0.1-1.5-0.2l-7.2,22.4L76,24.7z M76,24.7"/>
	<path class="st3" d="M90.3,0.7c-2.1-0.4-4.2-0.8-6.4-1v21.4L90.3,0.7z M90.3,0.7"/>
	<path class="st4" d="M83.9,49.6V21.1l-4.5,14.4L83.9,49.6C83.8,49.6,83.8,49.6,83.9,49.6L83.9,49.6z M83.9,49.6"/>
	<path class="st4" d="M83.9,49.6c0.4,0.1,0.8,0.2,1.3,0.3L99.7,3.3c-3.1-1.1-6.2-1.9-9.5-2.6l-6.4,20.4V49.6z M83.9,49.6"/>
	<path class="st2" d="M55.9,53.2L41.4,7c-1.8,0.9-3.6,1.8-5.3,2.9l14.6,46.6C52.4,55.3,54.1,54.2,55.9,53.2L55.9,53.2z M55.9,53.2"
		/>
	<path class="st2" d="M83.6,49.5l-4.3-13.7l-3.3-11L68-0.5c-2,0.2-4,0.4-5.9,0.8l15.2,48.3C79.4,48.8,81.5,49,83.6,49.5L83.6,49.5z
		 M83.6,49.5"/>
	<path class="st2" d="M76,24.7l3.3,11l0.1-0.3L76,24.7z M76,24.7"/>
	<path class="st2" d="M79.3,35.5l-0.1,0.3l4.3,13.7c0.1,0,0.1,0,0.2,0L79.3,35.5z M79.3,35.5"/>
	<path class="st3" d="M61.4,50.8L46.8,4.6C45,5.3,43.2,6.1,41.4,7l14.5,46.2C57.7,52.3,59.5,51.5,61.4,50.8L61.4,50.8z M61.4,50.8"
		/>
	<path class="st3" d="M70,45.6l1,3.1c1.3-0.1,2.5-0.2,3.8-0.2c0.8,0,1.5,0,2.3,0.1l-0.9-3l-3.1-9.8L70,25.9L61.9,0.3
		c-2,0.3-3.9,0.7-5.8,1.2l10.8,34.2L70,45.6z M70,45.6"/>
	<path class="st4" d="M71,48.7l-1-3.1l-3.1-9.8L56.2,1.5c-3.2,0.8-6.3,1.8-9.3,3l14.5,46.3C64.4,49.8,67.6,49,71,48.7L71,48.7z
		 M71,48.7"/>
	<path class="st5" d="M83.9,49.8v-0.3c0,0-0.1,0-0.1,0L83.9,49.8z M83.9,49.8"/>
	<path class="st5" d="M38.9,88.9C38.9,69.1,55,53,74.8,53c3.1,0,6.1,0.4,9,1.1v-3.8c-1.8,0.8-4.4-1-5.9,0.2l-0.6-1.9
		c-0.1,0-0.1,0-0.2,0c-0.8,0-1.5-0.1-2.3-0.1c-1.3,0-2.6,0.1-3.8,0.2c-3.3,0.3-6.6,1-9.6,2.1c-1.9,0.7-3.7,1.5-5.4,2.4
		c-1.8,1-3.5,2-5.2,3.3c-9.9,7.4-16.3,19.1-16.3,32.4c0,13.7,6.8,25.8,17.2,33.1v-5.6C43.9,109.8,38.9,99.9,38.9,88.9L38.9,88.9z
		 M38.9,88.9"/>
	<path class="st5" d="M115.2,88.9c0-14.5-7.7-27.3-19.2-34.4c-1.7-1-3.5-2-5.3-2.8c-1.8-0.8-3.7-1.4-5.6-1.9
		c-0.4-0.1-0.8-0.2-1.3-0.3v0.3l0.1,0.4c0,0-0.1,0-0.1,0.1v3.8c15.5,4,26.9,18.1,26.9,34.8c0,19.8-16.1,35.9-35.9,35.9
		c-8.8,0-16.9-3.2-23.2-8.5v5.6c6.6,4.6,14.5,7.3,23.2,7.3C97.1,129.3,115.2,111.2,115.2,88.9L115.2,88.9z M115.2,88.9"/>
	<path class="st5" d="M83.9,50.3v-0.5l-0.1-0.3c-0.1,0-0.1,0-0.2,0c-2-0.5-4.1-0.7-6.3-0.9l0.6,1.9C79.5,49.4,82.1,51.1,83.9,50.3
		L83.9,50.3z M83.9,50.3"/>
	<path class="st5" d="M84,50.3l-0.1-0.4v0.5C83.9,50.3,84,50.3,84,50.3L84,50.3z M84,50.3"/>
	<path class="st6" d="M38.9,88.9c0,11,5,20.9,12.8,27.5v-10.6c-1-0.3-1.8-1-2.4-2.1c-1-1.7-0.8-3.5,0.1-4.8
		c-0.2-0.4-0.3-0.8-0.5-1.3c-1.5-0.4-2.8-1.7-3.2-3.6c-0.4-1.9,0.5-3.6,1.8-4.5c0-0.2,0-0.4,0-0.7c0-0.2,0-0.5,0-0.7
		c-1.3-0.9-2.1-2.5-1.8-4.5c0.3-1.9,1.7-3.2,3.2-3.6c0.1-0.4,0.3-0.8,0.5-1.3c-0.9-1.3-1.1-3.1-0.1-4.8c1-1.7,2.7-2.4,4.2-2.3
		c0.3-0.4,0.6-0.7,0.9-1c-0.4-1.5,0-3.3,1.5-4.6c1.5-1.2,3.3-1.4,4.7-0.7c0.4-0.2,0.8-0.5,1.2-0.7c0.1-1.6,1.1-3.1,3-3.7
		c1.8-0.7,3.6-0.2,4.7,1c0.4-0.1,0.9-0.2,1.3-0.2c0.6-1.4,2.1-2.5,4.1-2.5c1.9,0,3.4,1.1,4.1,2.5c0.4,0.1,0.9,0.1,1.3,0.2
		c0.9-0.9,2.2-1.4,3.6-1.2v-6.8c-2.9-0.7-5.9-1.1-9-1.1C55,53,38.9,69.1,38.9,88.9L38.9,88.9z M38.9,88.9"/>
	<path class="st6" d="M84.9,61.1c1.8,0.7,2.9,2.2,3,3.8c0.4,0.2,0.8,0.4,1.2,0.7c1.4-0.7,3.2-0.5,4.7,0.7c1.5,1.3,1.9,3.1,1.5,4.6
		c0.3,0.3,0.6,0.7,0.9,1c1.6-0.2,3.3,0.6,4.2,2.3c1,1.7,0.8,3.5-0.1,4.8c0.2,0.4,0.3,0.8,0.5,1.3c1.5,0.4,2.8,1.7,3.2,3.6
		c0.4,1.9-0.5,3.6-1.8,4.5c0,0.2,0,0.4,0,0.7c0,0.2,0,0.5,0,0.7c1.3,0.9,2.1,2.5,1.8,4.5c-0.3,1.9-1.7,3.2-3.2,3.6
		c-0.1,0.4-0.3,0.8-0.5,1.3c0.9,1.3,1.1,3.1,0.1,4.8c-1,1.7-2.7,2.4-4.2,2.3c-0.3,0.3-0.6,0.7-0.9,1c0.4,1.5,0,3.3-1.5,4.6
		c-1.5,1.2-3.3,1.4-4.7,0.7c-0.4,0.2-0.8,0.5-1.2,0.7c-0.1,1.6-1.1,3.1-3,3.8c-1.8,0.7-3.6,0.2-4.7-1c-0.4,0.1-0.9,0.2-1.3,0.2
		c-0.6,1.4-2.1,2.5-4.1,2.5c-1.9,0-3.4-1.1-4.1-2.5c-0.4-0.1-0.9-0.1-1.3-0.2c-1.1,1.1-2.9,1.6-4.7,1c-1.8-0.7-2.9-2.2-3-3.8
		c-0.4-0.2-0.8-0.4-1.2-0.7c-1.4,0.7-3.2,0.5-4.7-0.7c-1.5-1.3-1.9-3.1-1.5-4.6c-0.3-0.3-0.6-0.7-0.9-1c-0.6,0.1-1.2,0-1.8-0.2v10.6
		c6.3,5.3,14.3,8.5,23.2,8.5c19.8,0,35.9-16.1,35.9-35.9c0-16.7-11.4-30.8-26.9-34.8v6.8C84.2,60.9,84.6,61,84.9,61.1L84.9,61.1z
		 M84.9,61.1"/>
	<path class="st3" d="M103.9,94c0.4-1.9-0.5-3.6-1.8-4.5c-0.1,2.8-0.6,5.5-1.4,8C102.3,97.2,103.6,96,103.9,94L103.9,94z M103.9,94"
		/>
	<path class="st3" d="M100.4,103.7c1-1.7,0.8-3.5-0.1-4.8c-1,2.6-2.4,5-4.1,7.1C97.8,106.1,99.5,105.4,100.4,103.7L100.4,103.7z
		 M100.4,103.7"/>
	<path class="st3" d="M89.1,112.2c1.4,0.7,3.2,0.5,4.7-0.7c1.5-1.3,1.9-3.1,1.5-4.6C93.5,109,91.4,110.8,89.1,112.2L89.1,112.2z
		 M89.1,112.2"/>
	<path class="st3" d="M84.9,116.7c1.8-0.7,2.9-2.2,3-3.8c-2.4,1.3-4.9,2.2-7.7,2.8C81.3,116.8,83.1,117.3,84.9,116.7L84.9,116.7z
		 M84.9,116.7"/>
	<path class="st3" d="M70.8,115.9c0.6,1.4,2.1,2.5,4.1,2.5c1.9,0,3.4-1.1,4.1-2.5c-1.3,0.2-2.7,0.3-4.1,0.3
		C73.4,116.2,72.1,116.1,70.8,115.9L70.8,115.9z M70.8,115.9"/>
	<path class="st3" d="M64.7,116.7c1.8,0.7,3.6,0.2,4.7-1c-2.7-0.5-5.3-1.5-7.7-2.8C61.9,114.5,62.9,116,64.7,116.7L64.7,116.7z
		 M64.7,116.7"/>
	<path class="st3" d="M54.3,107c-0.4,1.5,0,3.3,1.5,4.6c1.5,1.2,3.3,1.4,4.7,0.7C58.2,110.8,56.1,109,54.3,107L54.3,107z M54.3,107"
		/>
	<path class="st3" d="M49.4,98.9c-0.9,1.3-1.1,3.1-0.1,4.8c0.6,1.1,1.5,1.7,2.4,2.1v-2.3C50.8,102,50,100.5,49.4,98.9L49.4,98.9z
		 M49.4,98.9"/>
	<path class="st3" d="M53.5,106c-0.6-0.8-1.2-1.7-1.8-2.5v2.3C52.3,106,52.9,106,53.5,106L53.5,106z M53.5,106"/>
	<path class="st3" d="M45.7,94c0.3,1.9,1.7,3.2,3.2,3.6c-0.9-2.5-1.3-5.2-1.4-8C46.2,90.5,45.4,92.1,45.7,94L45.7,94z M45.7,94"/>
	<path class="st3" d="M45.7,83.8c-0.4,1.9,0.5,3.6,1.8,4.5c0.1-2.8,0.6-5.5,1.4-8C47.4,80.6,46.1,81.9,45.7,83.8L45.7,83.8z
		 M45.7,83.8"/>
	<path class="st3" d="M49.2,74.1c-1,1.7-0.8,3.5,0.1,4.8c1-2.6,2.4-4.9,4.1-7.1C51.9,71.7,50.2,72.4,49.2,74.1L49.2,74.1z
		 M49.2,74.1"/>
	<path class="st3" d="M60.6,65.6c-1.4-0.7-3.2-0.5-4.7,0.7c-1.5,1.3-1.9,3.1-1.5,4.6C56.1,68.8,58.2,67,60.6,65.6L60.6,65.6z
		 M60.6,65.6"/>
	<path class="st3" d="M64.7,61.1c-1.8,0.7-2.9,2.2-3,3.8c2.4-1.3,4.9-2.2,7.7-2.8C68.3,61,66.6,60.5,64.7,61.1L64.7,61.1z
		 M64.7,61.1"/>
	<path class="st3" d="M78.9,61.9c-0.6-1.4-2.1-2.5-4.1-2.5c-1.9,0-3.4,1.1-4.1,2.5c1.3-0.2,2.7-0.3,4.1-0.3
		C76.2,61.6,77.6,61.7,78.9,61.9L78.9,61.9z M78.9,61.9"/>
	<path class="st3" d="M83.9,60.9c-1.4-0.2-2.7,0.3-3.6,1.2c1.2,0.2,2.5,0.6,3.6,1V60.9z M83.9,60.9"/>
	<path class="st3" d="M87.9,64.9c-0.1-1.6-1.1-3.1-3-3.8c-0.4-0.1-0.7-0.2-1.1-0.3v2.2C85.3,63.6,86.6,64.2,87.9,64.9L87.9,64.9z
		 M87.9,64.9"/>
	<path class="st3" d="M95.3,70.8c0.4-1.5,0-3.3-1.5-4.6c-1.5-1.2-3.3-1.4-4.7-0.7C91.4,67,93.5,68.8,95.3,70.8L95.3,70.8z
		 M95.3,70.8"/>
	<path class="st3" d="M100.4,74.1c-1-1.7-2.7-2.4-4.2-2.3c1.7,2.1,3.1,4.5,4.1,7.1C101.2,77.7,101.4,75.8,100.4,74.1L100.4,74.1z
		 M100.4,74.1"/>
	<path class="st3" d="M103.9,83.8c-0.3-1.9-1.7-3.2-3.2-3.6c0.9,2.5,1.3,5.2,1.4,8C103.4,87.4,104.3,85.7,103.9,83.8L103.9,83.8z
		 M103.9,83.8"/>
	<path class="st7" d="M51.7,98.6c-1.3-3-2-6.3-2-9.7c0-3.4,0.7-6.7,2-9.7v-2h1c4.2-7.9,12.6-13.4,22.2-13.4c3.2,0,6.2,0.6,9,1.7
		v-2.4c-1.2-0.4-2.4-0.7-3.6-1c-0.4-0.1-0.9-0.2-1.3-0.2c-1.3-0.2-2.7-0.3-4.1-0.3c-1.4,0-2.7,0.1-4.1,0.3c-0.4,0.1-0.9,0.1-1.3,0.2
		c-2.7,0.5-5.3,1.5-7.7,2.8c-0.4,0.2-0.8,0.4-1.2,0.7c-2.3,1.4-4.4,3.2-6.2,5.2c-0.3,0.3-0.6,0.7-0.9,1c-1.7,2.1-3.1,4.5-4.1,7.1
		c-0.2,0.4-0.3,0.8-0.5,1.3c-0.9,2.5-1.3,5.2-1.4,8c0,0.2,0,0.4,0,0.7c0,0.2,0,0.4,0,0.7c0.1,2.8,0.6,5.5,1.4,8
		c0.1,0.4,0.3,0.8,0.5,1.3c0.6,1.6,1.4,3.1,2.3,4.5L51.7,98.6L51.7,98.6z M51.7,98.6"/>
	<path class="st7" d="M51.7,77.2v2c0.3-0.7,0.6-1.4,1-2H51.7z M51.7,77.2"/>
	<path class="st7" d="M83.9,65.5c9.4,3.6,16.1,12.7,16.1,23.4c0,13.9-11.2,25.1-25.1,25.1c-10.4,0-19.4-6.3-23.2-15.4v4.8
		c0.6,0.9,1.2,1.7,1.8,2.5c0.3,0.3,0.6,0.7,0.9,1c1.8,2,3.9,3.8,6.2,5.2c0.4,0.2,0.8,0.5,1.2,0.7c2.4,1.3,4.9,2.2,7.7,2.8
		c0.4,0.1,0.9,0.2,1.3,0.2c1.3,0.2,2.7,0.3,4.1,0.3c1.4,0,2.7-0.1,4.1-0.3c0.4-0.1,0.9-0.1,1.3-0.2c2.7-0.5,5.3-1.5,7.7-2.8
		c0.4-0.2,0.8-0.4,1.2-0.7c2.3-1.4,4.4-3.2,6.2-5.2c0.3-0.3,0.6-0.7,0.9-1c1.7-2.1,3.1-4.5,4.1-7.1c0.2-0.4,0.3-0.8,0.5-1.3
		c0.9-2.5,1.3-5.2,1.4-8c0-0.2,0-0.4,0-0.7c0-0.2,0-0.5,0-0.7c-0.1-2.8-0.6-5.5-1.4-8c-0.1-0.4-0.3-0.8-0.5-1.3
		c-1-2.6-2.4-4.9-4.1-7.1c-0.3-0.4-0.6-0.7-0.9-1c-1.8-2-3.9-3.8-6.2-5.2c-0.4-0.2-0.8-0.5-1.2-0.7c-1.3-0.7-2.6-1.3-4.1-1.8V65.5z
		 M83.9,65.5"/>
	<path class="st8" d="M49.7,88.9c0,3.5,0.7,6.7,2,9.7V79.2C50.4,82.2,49.7,85.5,49.7,88.9L49.7,88.9z M49.7,88.9"/>
	<path class="st8" d="M65,76.5c0.7-0.3,1.3-0.7,2-1.1c0.7-0.4,1.4-1,2.1-1.7c0.7-0.7,1.6-1.5,2.4-2.6h8.7v6.1h3.7V65.5
		c-2.8-1.1-5.8-1.7-9-1.7c-9.6,0-18,5.4-22.2,13.4h10.9C64.1,76.9,64.5,76.7,65,76.5L65,76.5z M65,76.5"/>
	<path class="st8" d="M74.8,114c13.9,0,25.1-11.2,25.1-25.1c0-10.7-6.7-19.8-16.1-23.4v11.7h-3.7v21.5h4.5v6.5H65.2v-6.5h4.9V80.6
		l-4.9,2.3L63,77.4c0.2-0.1,0.4-0.2,0.6-0.3H52.6c-0.3,0.7-0.7,1.3-1,2v19.5C55.5,107.7,64.4,114,74.8,114L74.8,114z M74.8,114"/>
	<path class="st9" d="M71.5,71.1c-0.9,1.1-1.7,1.9-2.4,2.6c-0.7,0.7-1.5,1.2-2.1,1.7c-0.7,0.4-1.3,0.8-2,1.1
		c-0.5,0.2-0.9,0.5-1.4,0.7h16.6v-6.1H71.5z M71.5,71.1"/>
	<path class="st9" d="M63,77.4l2.2,5.4l4.9-2.3v18.1h-4.9v6.5h19.5v-6.5h-4.5V77.2H63.6C63.4,77.2,63.2,77.3,63,77.4L63,77.4z
		 M63,77.4"/>
</g>
</svg>
