<?xml version="1.0" encoding="utf-8"?>
<!-- Generator: Adobe Illustrator 19.0.0, SVG Export Plug-In . SVG Version: 6.00 Build 0)  -->
<svg version="1.1" id="Layer_1" xmlns="http://www.w3.org/2000/svg" xmlns:xlink="http://www.w3.org/1999/xlink" x="0px" y="0px"
	 viewBox="0 0 150 150" style="enable-background:new 0 0 150 150;" xml:space="preserve">
<style type="text/css">
	.st0{fill:#EAEAE2;}
	.st1{fill:#B3B2A5;}
	.st2{fill:#FFD900;}
	.st3{fill:#FFA000;}
	.st4{fill:#FFEB49;}
	.st5{fill:#FFD539;}
	.st6{fill:#783908;}
	.st7{fill:#FF8E18;}
</style>
<rect id="XMLID_1_" x="0.8" class="st0" width="148.5" height="150"/>
<g id="XMLID_107_">
	<path id="XMLID_222_" class="st0" d="M149.2,75c0,41-33.2,74.2-74.2,74.2C34,149.2,0.8,116,0.8,75C0.8,34,34,0.8,75,0.8
		C116,0.8,149.2,34,149.2,75L149.2,75z M149.2,75"/>
	<path id="XMLID_219_" class="st1" d="M142.3,43.7l-37.1-25.3l-4.1,1.9v16.9H78.5v83.4h-18v9H40.3v3.9l22.4,14.7c4,0.7,8.1,1,12.3,1
		c41,0,74.2-33.2,74.2-74.2C149.2,63.8,146.7,53.2,142.3,43.7L142.3,43.7z M142.3,43.7"/>
	<path id="XMLID_216_" class="st2" d="M69.6,93.4c0-0.1,0.1-0.2,0.1-0.3C69.7,93.2,69.7,93.3,69.6,93.4L69.6,93.4z M69.6,93.4"/>
	<path id="XMLID_213_" class="st2" d="M69.2,94.4c0-0.1,0.1-0.1,0.1-0.2C69.2,94.3,69.2,94.3,69.2,94.4L69.2,94.4z M69.2,94.4"/>
	<path id="XMLID_210_" class="st2" d="M70.1,92.2c0,0,0,0.1,0,0.1C70,92.3,70.1,92.2,70.1,92.2L70.1,92.2z M70.1,92.2"/>
	<path id="XMLID_207_" class="st3" d="M74.9,95.3H82c0,0,0,0,0-0.1c-0.2-0.3-0.3-0.6-0.5-0.8c0-0.1-0.1-0.1-0.1-0.2
		c-0.1-0.3-0.3-0.5-0.4-0.8c0-0.1-0.1-0.2-0.1-0.3c-0.1-0.3-0.2-0.5-0.3-0.8c0,0,0-0.1,0-0.1H70.1c0,0,0,0.1,0,0.1
		c-0.1,0.3-0.2,0.6-0.3,0.8c0,0.1-0.1,0.2-0.1,0.3c-0.1,0.3-0.2,0.5-0.4,0.8c0,0.1-0.1,0.1-0.1,0.2c-0.1,0.3-0.3,0.6-0.5,0.8
		c0,0,0,0.1,0,0.1H74.9z M74.9,95.3"/>
	<path id="XMLID_204_" class="st2" d="M106.5,21.1L106.5,21.1c0.3-1.9-1.6-3.6-3.5-3.6H47.6c-1.9,0-3.5,1.6-3.5,3.5v0.1H106.5z
		 M106.5,21.1"/>
	<path id="XMLID_201_" class="st2" d="M66.3,84.6h18.1c0,0.1,0,0.1,0,0.2v-0.1c0,0,0-0.1,0-0.1c18.6-9.2,21.9-44.7,22.1-64.3H74.9
		l-30.6,0.1c0,0.2-0.1,0.3-0.1,0.4C44.5,40.5,47.9,75.5,66.3,84.6c0,0.1,0,0.1,0,0.1v0.1C66.3,84.7,66.3,84.7,66.3,84.6L66.3,84.6z
		 M66.3,84.6"/>
	<path id="XMLID_198_" class="st3" d="M74.8,27.4l0,57.9l9.7-0.7v0c16.7-8.3,21-37.2,21.9-57.2H74.8z M74.8,27.4"/>
	<path id="XMLID_195_" class="st2" d="M74.9,92.2h6.7c1.5,0,2.8-1.3,2.8-2.8v-2.1H66.3v2.1c0,1.5,1.3,2.8,2.8,2.8H74.9z M74.9,92.2"
		/>
	<path id="XMLID_192_" class="st3" d="M74.7,87.2v5.2l6.9-0.2c1.5,0,2.8-1.3,2.8-2.8v-2.1L74.7,87.2z M74.7,87.2"/>
	<path id="XMLID_189_" class="st2" d="M80.9,93.1c0,0.1,0.1,0.2,0.1,0.3C81,93.3,81,93.2,80.9,93.1L80.9,93.1z M80.9,93.1"/>
	<path id="XMLID_186_" class="st2" d="M98.8,106.2c-1.8-0.8-12.3-3.2-16.8-11c0,0,0,0.1,0,0.1H68.7c0,0,0,0,0-0.1
		c-4.6,7.8-15,10.1-16.8,11c-1.8,0.7-2.7,1.5-2.7,2.3c0,2.8,11.4,5.2,25.7,5.3v0c0.2,0,0.3,0,0.5,0s0.3,0,0.5,0v0
		c14.3-0.1,25.7-2.4,25.7-5.3C101.5,107.7,100.5,106.9,98.8,106.2L98.8,106.2z M98.8,106.2"/>
	<path id="XMLID_183_" class="st3" d="M98.8,106.2c-1.8-0.8-12.3-3.2-16.8-11c0,0,0,0.1,0,0.1l-7.3-0.1v18.6
		c0.1,0.3,0.6,0.1,0.6,0.1c0.2,0,0.3,0,0.5,0v0c14.3-0.1,25.7-2.4,25.7-5.3C101.5,107.7,100.5,106.9,98.8,106.2L98.8,106.2z
		 M98.8,106.2"/>
	<path id="XMLID_180_" class="st2" d="M80.6,92.3c0,0,0-0.1,0-0.1h0C80.6,92.2,80.6,92.3,80.6,92.3L80.6,92.3z M80.6,92.3"/>
	<path id="XMLID_177_" class="st2" d="M81.4,94.2c0,0.1,0.1,0.1,0.1,0.2C81.5,94.3,81.4,94.3,81.4,94.2L81.4,94.2z M81.4,94.2"/>
	<path id="XMLID_174_" class="st3" d="M75.8,87.3h8.6v-2.5c0-0.1,0-0.1,0-0.2H66.3c0,0.1,0,0.1,0,0.2v2.5H75.8z M75.8,87.3"/>
	<path id="XMLID_171_" class="st4" d="M47.7,17.5h28.3v3.6H44.2V21C43.8,19.1,45.7,17.5,47.7,17.5L47.7,17.5z M47.7,17.5"/>
	<path id="XMLID_168_" class="st4" d="M75.9,20.3v7.2l-31.6,0c-0.1-2.6-0.2-5-0.2-7.2H75.9z M75.9,20.3"/>
	<path id="XMLID_165_" class="st5" d="M103,17.5H74.7v3.6h31.8V21C106.8,19.1,104.9,17.5,103,17.5L103,17.5z M103,17.5"/>
	<path id="XMLID_162_" class="st5" d="M74.8,20.3v7.2h31.5c0.1-2.6,0.2-5,0.2-7.2L74.8,20.3z M74.8,20.3"/>
	<path id="XMLID_159_" class="st6" d="M111.2,131.3c0,1.5-1.2,2.8-2.8,2.8H41.8c-1.5,0-2.8-1.3-2.8-2.8v-21.2c0-1.5,1.3-2.8,2.8-2.8
		h66.6c1.5,0,2.8,1.3,2.8,2.8V131.3z M111.2,131.3"/>
	<path id="XMLID_156_" class="st7" d="M104.2,123.6c0,1.9-1.6,3.5-3.5,3.5H49.5c-1.9,0-3.5-1.6-3.5-3.5v-5.8c0-1.9,1.6-3.5,3.5-3.5
		h51.2c1.9,0,3.5,1.6,3.5,3.5V123.6z M104.2,123.6"/>
</g>
</svg>
