<?xml version="1.0" encoding="utf-8"?>
<!-- Generator: Adobe Illustrator 19.0.0, SVG Export Plug-In . SVG Version: 6.00 Build 0)  -->
<svg version="1.1" id="Layer_1" xmlns="http://www.w3.org/2000/svg" xmlns:xlink="http://www.w3.org/1999/xlink" x="0px" y="0px"
	 viewBox="0 0 150 150" style="enable-background:new 0 0 150 150;" xml:space="preserve">
<style type="text/css">
	.st0{fill:#26A9E0;}
	.st1{fill:#0078B2;}
	.st2{fill:#AF2D17;}
	.st3{fill:#D34E32;}
	.st4{fill:#FFFFF5;}
	.st5{fill:#F1C40F;}
	.st6{fill:#0D2038;}
</style>
<rect id="XMLID_1_" class="st0" width="150" height="150"/>
<g id="XMLID_25_">
	<path id="XMLID_56_" class="st0" d="M150,75c0,41.4-33.6,75-75,75c-41.4,0-75-33.6-75-75C0,33.6,33.6,0,75,0
		C116.4,0,150,33.6,150,75L150,75z M150,75"/>
	<path id="XMLID_53_" class="st1" d="M145.9,50.6L99.2,23.7l1.5,55.2H48.4l0.3,54.6L74.8,150c0.1,0,0.2,0,0.2,0
		c41.4,0,75-33.6,75-75C150,66.5,148.6,58.3,145.9,50.6L145.9,50.6z M145.9,50.6"/>
	<path id="XMLID_50_" class="st2" d="M48.7,133.5l-7.1-13.8l-15.3-0.2l29.3-47l22.4,14L48.7,133.5z M48.7,133.5"/>
	<path id="XMLID_47_" class="st3" d="M48.8,128.8l-5.2-10.1l-0.6-1.3l-1.4,0l-11.1-0.1l25.9-41.5l18.4,11.5L48.8,128.8z M48.8,128.8
		"/>
	<path id="XMLID_44_" class="st2" d="M100.5,133.4l6.7-14l15.3-0.6L92,72.6L70,87.2L100.5,133.4z M100.5,133.4"/>
	<path id="XMLID_41_" class="st3" d="M100.2,128.7l5-10.3l0.6-1.3l1.4-0.1l11.1-0.4l-27-40.8l-18.1,12L100.2,128.7z M100.2,128.7"/>
	<path id="XMLID_38_" class="st4" d="M121.7,61.9c2.3,2.1,2.3,5.5,0,7.6c-2.3,2.1-2.9,6-1.5,8.8c1.4,2.7,0.2,5.9-2.6,7.1
		c-2.8,1.2-4.8,4.6-4.4,7.7c0.4,3-1.8,5.7-4.9,5.8c-3.1,0.1-6.1,2.7-6.8,5.7c-0.7,3-3.6,4.7-6.6,3.8c-2.9-0.9-6.7,0.5-8.4,3
		c-1.7,2.6-5,3.2-7.5,1.3c-2.4-1.9-6.4-1.9-8.9,0c-2.4,1.9-5.8,1.3-7.5-1.3c-1.7-2.6-5.4-4-8.4-3c-2.9,0.9-5.9-0.8-6.6-3.8
		c-0.7-3-3.7-5.6-6.8-5.7c-3.1-0.1-5.3-2.8-4.9-5.8c0.4-3-1.6-6.5-4.5-7.7c-2.8-1.2-4-4.4-2.6-7.1c1.4-2.7,0.7-6.7-1.5-8.8
		c-2.3-2.1-2.3-5.5,0-7.6c2.3-2.1,2.9-6,1.5-8.8c-1.4-2.7-0.2-5.9,2.6-7.1c2.8-1.2,4.8-4.6,4.5-7.7c-0.4-3,1.8-5.7,4.9-5.8
		c3.1-0.1,6.1-2.7,6.8-5.7c0.7-3,3.6-4.7,6.6-3.8c2.9,0.9,6.7-0.5,8.4-3c1.7-2.6,5-3.2,7.5-1.3c2.4,1.9,6.4,1.9,8.9,0
		c2.4-1.9,5.8-1.3,7.5,1.3c1.7,2.6,5.4,4,8.4,3c2.9-0.9,5.9,0.8,6.6,3.8c0.7,3,3.7,5.6,6.8,5.7c3.1,0.1,5.3,2.8,4.9,5.8
		c-0.4,3,1.6,6.5,4.4,7.7c2.8,1.2,4,4.4,2.6,7.1C118.8,55.9,119.5,59.8,121.7,61.9L121.7,61.9z M121.7,61.9"/>
	<path id="XMLID_35_" class="st5" d="M83.6,106.1c-0.8,1.2-2.4,1.5-3.6,0.6c-1.2-0.9-2.9-2.2-3.8-2.9c-0.9-0.7-2.3-0.7-3.2,0
		c-0.9,0.7-2.6,2-3.8,2.9c-1.2,0.9-2.8,0.6-3.6-0.6c-0.8-1.2-2-3-2.6-4c-0.6-0.9-2-1.4-3-1.1c-1.1,0.3-3.1,1-4.5,1.4
		c-1.4,0.4-2.8-0.4-3.2-1.8c-0.3-1.4-0.8-3.5-1-4.6c-0.2-1.1-1.4-2-2.5-2.1c-1.1-0.1-3.2-0.2-4.7-0.2c-1.5-0.1-2.5-1.3-2.4-2.8
		c0.2-1.5,0.5-3.6,0.6-4.7c0.1-1.1-0.6-2.4-1.6-2.8c-1-0.4-3-1.2-4.4-1.8c-1.4-0.6-1.9-2.1-1.2-3.4c0.7-1.3,1.7-3.2,2.2-4.2
		c0.5-1,0.3-2.4-0.6-3.2c-0.8-0.8-2.4-2.2-3.5-3.2c-1.1-1-1.1-2.7,0-3.7c1.1-1,2.7-2.5,3.5-3.2c0.8-0.8,1.1-2.2,0.6-3.2
		c-0.5-1-1.5-2.9-2.2-4.2c-0.7-1.3-0.1-2.9,1.3-3.4c1.4-0.6,3.3-1.4,4.4-1.8c1-0.4,1.8-1.7,1.6-2.8c-0.1-1.1-0.4-3.2-0.6-4.7
		c-0.2-1.5,0.9-2.7,2.4-2.8c1.5-0.1,3.6-0.2,4.7-0.2c1.1-0.1,2.2-1,2.5-2.1c0.2-1.1,0.7-3.2,1-4.6c0.3-1.4,1.8-2.3,3.2-1.8
		c1.4,0.4,3.4,1.1,4.5,1.4c1.1,0.3,2.4-0.2,3-1.1c0.6-0.9,1.8-2.7,2.6-4c0.8-1.2,2.4-1.5,3.6-0.6c1.2,0.9,2.9,2.2,3.8,2.9
		c0.9,0.7,2.3,0.7,3.2,0c0.9-0.7,2.6-2,3.8-2.9c1.2-0.9,2.8-0.6,3.6,0.6c0.8,1.2,2,3,2.6,4c0.6,0.9,2,1.4,3,1.1
		c1.1-0.3,3.1-1,4.5-1.4c1.4-0.4,2.8,0.4,3.2,1.8c0.3,1.4,0.8,3.5,1,4.6c0.2,1.1,1.4,2,2.5,2.1c1.1,0.1,3.2,0.2,4.7,0.2
		c1.5,0.1,2.5,1.3,2.4,2.8c-0.2,1.5-0.5,3.6-0.6,4.7c-0.1,1.1,0.6,2.4,1.6,2.8c1,0.4,3,1.3,4.4,1.8c1.4,0.6,1.9,2.1,1.2,3.4
		c-0.7,1.3-1.7,3.2-2.2,4.2c-0.5,1-0.3,2.4,0.6,3.2c0.8,0.8,2.4,2.2,3.5,3.2c1.1,1,1.1,2.7,0,3.7c-1.1,1-2.7,2.5-3.5,3.2
		c-0.8,0.8-1.1,2.2-0.6,3.2c0.5,1,1.5,2.9,2.2,4.2c0.7,1.3,0.1,2.9-1.2,3.4c-1.4,0.6-3.3,1.4-4.4,1.8c-1,0.4-1.8,1.7-1.6,2.8
		c0.1,1.1,0.4,3.2,0.6,4.7c0.2,1.5-0.9,2.7-2.4,2.8c-1.5,0.1-3.6,0.2-4.7,0.2c-1.1,0.1-2.2,1-2.5,2.1c-0.2,1.1-0.7,3.2-1,4.6
		c-0.3,1.4-1.7,2.3-3.2,1.8c-1.4-0.4-3.4-1.1-4.5-1.4c-1.1-0.3-2.4,0.2-3,1.1C85.6,103.1,84.4,104.9,83.6,106.1L83.6,106.1z
		 M83.6,106.1"/>
	<path id="XMLID_32_" class="st6" d="M107.3,66.1c0,18.3-14.8,33.1-33.1,33.1c-18.3,0-33.1-14.8-33.1-33.1C41.2,47.8,56,33,74.3,33
		C92.5,33,107.3,47.8,107.3,66.1L107.3,66.1z M107.3,66.1"/>
	<path id="XMLID_29_" class="st4" d="M45.1,66.1c0-16.1,13.1-29.1,29.1-29.1c16.1,0,29.1,13.1,29.1,29.1c0,16.1-13.1,29.1-29.1,29.1
		V91c13.7,0,24.9-11.2,24.9-24.9c0-13.7-11.2-24.9-24.9-24.9c-13.7,0-24.9,11.2-24.9,24.9c0,13.7,11.2,24.9,24.9,24.9v4.3
		C58.2,95.2,45.1,82.2,45.1,66.1L45.1,66.1z M45.1,66.1"/>
	<path id="XMLID_26_" class="st4" d="M64,55.1c0.6-0.3,1.2-0.6,1.8-0.9c0.6-0.3,1.2-0.6,1.8-1c0.6-0.4,1.2-0.9,1.9-1.5
		c0.7-0.6,1.4-1.4,2.2-2.3h7.8v24.8h4.1v5.8H66v-5.8h4.4V57.9L66,59.9L64,55.1z M64,55.1"/>
</g>
</svg>
