<?xml version="1.0" encoding="utf-8"?>
<!-- Generator: Adobe Illustrator 19.0.0, SVG Export Plug-In . SVG Version: 6.00 Build 0)  -->
<svg version="1.1" id="Layer_1" xmlns="http://www.w3.org/2000/svg" xmlns:xlink="http://www.w3.org/1999/xlink" x="0px" y="0px"
	 viewBox="0 0 150 150" style="enable-background:new 0 0 150 150;" xml:space="preserve">
<style type="text/css">
	.st0{fill:#FFA529;}
	.st1{fill:#C96E00;}
	.st2{fill:#000412;}
	.st3{fill:#375D70;}
	.st4{fill:#D2BCB5;}
	.st5{fill:#FFFFF5;}
	.st6{fill:#F2F5F5;}
	.st7{fill:#DD3D2C;}
</style>
<rect id="XMLID_27_" class="st0" width="150" height="150"/>
<g id="XMLID_2_">
	<path class="st0" d="M149.9,74.9c0,41.3-33.5,74.7-74.9,74.7C33.5,149.6,0,116.2,0,74.9C0,33.6,33.5,0.1,74.9,0.1
		C116.3,0.1,149.9,33.6,149.9,74.9L149.9,74.9z M149.9,74.9"/>
	<path class="st1" d="M149.9,74.9c0-7.6-1.1-15-3.3-21.9L98.1,26l3.8,28.1h-26l-0.8,87.7l16.2,6C124.8,140.3,149.9,110.5,149.9,74.9
		L149.9,74.9z M149.9,74.9"/>
	<path class="st2" d="M76,20.6c-0.4,0-0.8,0-1.2,0l0.3,121.2l12.9-26.6c20.7-5.4,36.1-24.2,36.1-46.5C124.1,42.1,102.6,20.6,76,20.6
		L76,20.6z M76,20.6"/>
	<path class="st3" d="M75.2,20.6c-26.3,0.4-47.5,21.8-47.5,48c0,21.7,14.4,40,34.2,46l13.2,27.1l0,0V20.6z M75.2,20.6"/>
	<path class="st4" d="M75.2,127.7L67.4,112l-1.2-2.4l-2.6-0.8c-17.9-5.4-29.9-21.6-29.9-40.2c0-23.2,18.9-42,42.1-42
		c23.2,0,42.1,18.8,42.1,42c0,19.1-13,35.9-31.5,40.7l-2.7,0.7l-1.2,2.5L75.2,127.7z M75.2,127.7"/>
	<path class="st5" d="M75.1,119.7l-4.5-9.1l-1.2-2.4l-0.7-1.4l-1.5-0.4l-2.6-0.8c-16.4-4.9-27.4-19.8-27.4-36.8
		c0-21.2,17.3-38.5,38.6-38.5c21.3,0,38.6,17.3,38.6,38.5c0,17.5-11.9,32.9-28.9,37.3l-2.7,0.7l-1.6,0.4l-0.7,1.5l-1.2,2.5
		L75.1,119.7z M75.1,119.7"/>
	<path class="st6" d="M75.9,30.2c-0.3,0-0.5,0-0.8,0v89.6l4.2-8.7l1.2-2.5l0.7-1.5l1.6-0.4l2.7-0.7c17-4.4,28.9-19.7,28.9-37.3
		C114.5,47.5,97.2,30.2,75.9,30.2L75.9,30.2z M75.9,30.2"/>
	<path class="st7" d="M57.2,68.3c0,3.7-3,6.7-6.7,6.7c-3.7,0-6.7-3-6.7-6.7c0-3.7,3-6.7,6.7-6.7C54.2,61.6,57.2,64.6,57.2,68.3
		L57.2,68.3z M57.2,68.3"/>
	<path class="st7" d="M81.6,68.3c0,3.7-3,6.7-6.7,6.7c-3.7,0-6.7-3-6.7-6.7c0-3.7,3-6.7,6.7-6.7C78.6,61.6,81.6,64.6,81.6,68.3
		L81.6,68.3z M81.6,68.3"/>
	<path class="st7" d="M107.1,68.3c0,3.7-3,6.7-6.7,6.7c-3.7,0-6.7-3-6.7-6.7c0-3.7,3-6.7,6.7-6.7C104.1,61.6,107.1,64.6,107.1,68.3
		L107.1,68.3z M107.1,68.3"/>
	<path class="st5" d="M74.1,119.1l-3.5-7.3c-0.3-0.6-0.7-1.5-1-2.1l-0.8-1.7c-0.2-0.4-0.9-1-1.3-1.1l-1.8-0.5
		c-0.6-0.2-28.9-8.4-28.9-37.7c0-21.5,17.6-39.1,39.2-39.1c21.6,0,39.2,17.5,39.2,39.1c0,31.2-29.8,38-30.4,38.1l-2,0.5
		c-0.4,0.1-1.1,0.7-1.3,1l-0.9,1.9c-0.3,0.6-0.7,1.5-1,2.1l-3.3,6.7c-0.2,0.4-0.5,0.8-1,0.8C74.7,119.8,74.3,119.5,74.1,119.1
		L74.1,119.1z M38,68.7c0,28.4,27.5,36.4,28.1,36.6l1.8,0.5c0.8,0.3,1.6,0.9,2,1.7l0.8,1.7c0.3,0.6,0.7,1.5,1,2.1l3.5,7.2l3.2-6.7
		c0.3-0.6,0.7-1.5,1-2.1l0.9-1.9c0.4-0.8,1.2-1.4,2-1.7l2-0.5c0.6-0.2,29.6-6.7,29.6-37c0-20.9-17-37.9-38-37.9
		C55,30.8,38,47.8,38,68.7L38,68.7z M38,68.7"/>
	<path class="st6" d="M76,29.6c-0.3,0-0.5,0-0.8,0v1.2c0.3,0,0.5,0,0.8,0c20.9,0,38,17,38,37.9c0,30.2-28.9,36.8-29.6,37l-2,0.5
		c-0.8,0.2-1.6,0.9-2,1.7l-0.9,1.9c-0.3,0.6-0.7,1.5-1,2.1l-3.2,6.7l0,0v1.3c0,0,0,0,0,0c0.5,0,0.9-0.4,1-0.8l3.3-6.7
		c0.3-0.6,0.7-1.5,1-2.1l0.9-1.9c0.2-0.4,0.9-1,1.3-1l2-0.5c0.6-0.1,30.4-6.9,30.4-38.1C115.1,47.1,97.6,29.6,76,29.6L76,29.6z
		 M76,29.6"/>
</g>
</svg>
